<svg xmlns="http://www.w3.org/2000/svg" xmlns:xlink="http://www.w3.org/1999/xlink" width="170" zoomAndPan="magnify" viewBox="0 0 127.5 52.499999" height="70" preserveAspectRatio="xMidYMid meet" version="1.0"><defs><g/><clipPath id="60895ff1a3"><path d="M 25.101562 6.3125 L 112.242188 6.3125 L 112.242188 25.769531 L 25.101562 25.769531 Z M 25.101562 6.3125 " clip-rule="nonzero"/></clipPath><clipPath id="21625b47da"><path d="M 19 6 L 31 6 L 31 17 L 19 17 Z M 19 6 " clip-rule="nonzero"/></clipPath><clipPath id="a2c6536793"><path d="M 28.078125 6.421875 L 30.875 10.753906 L 22.695312 16.03125 L 19.898438 11.695312 Z M 28.078125 6.421875 " clip-rule="nonzero"/></clipPath><clipPath id="15a1d5a67f"><path d="M 28.078125 6.421875 L 30.875 10.753906 L 22.695312 16.03125 L 19.898438 11.695312 Z M 28.078125 6.421875 " clip-rule="nonzero"/></clipPath><clipPath id="5f4543ec1a"><path d="M 9 5 L 39 5 L 39 41 L 9 41 Z M 9 5 " clip-rule="nonzero"/></clipPath><clipPath id="154cf4d1c2"><path d="M 21.511719 5.667969 L 38.292969 32.21875 L 25.8125 40.109375 L 9.03125 13.558594 Z M 21.511719 5.667969 " clip-rule="nonzero"/></clipPath><clipPath id="515390924f"><path d="M 21.511719 5.667969 L 38.292969 32.21875 L 25.8125 40.109375 L 9.03125 13.558594 Z M 21.511719 5.667969 " clip-rule="nonzero"/></clipPath><clipPath id="52f9765ed2"><path d="M 27 8 L 39 8 L 39 18 L 27 18 Z M 27 8 " clip-rule="nonzero"/></clipPath><clipPath id="c008094d28"><path d="M 35.828125 8.382812 L 38.539062 12.582031 L 30.359375 17.859375 L 27.648438 13.65625 Z M 35.828125 8.382812 " clip-rule="nonzero"/></clipPath><clipPath id="75d2320c2d"><path d="M 35.828125 8.382812 L 38.539062 12.582031 L 30.359375 17.859375 L 27.648438 13.65625 Z M 35.828125 8.382812 " clip-rule="nonzero"/></clipPath><clipPath id="25626b6a44"><path d="M 21 0 L 39 0 L 39 18 L 21 18 Z M 21 0 " clip-rule="nonzero"/></clipPath><clipPath id="7c93498cf7"><path d="M 30.527344 0 L 38.324219 12.089844 L 29.746094 17.621094 L 21.953125 5.53125 Z M 30.527344 0 " clip-rule="nonzero"/></clipPath><clipPath id="c36d5b0f0d"><path d="M 30.527344 0 L 38.324219 12.089844 L 29.746094 17.621094 L 21.953125 5.53125 Z M 30.527344 0 " clip-rule="nonzero"/></clipPath><clipPath id="c9d42e8e4c"><path d="M 8 28 L 26 28 L 26 46 L 8 46 Z M 8 28 " clip-rule="nonzero"/></clipPath><clipPath id="b1159f0f89"><path d="M 17.554688 28.058594 L 25.34375 40.378906 L 16.546875 45.941406 L 8.757812 33.621094 Z M 17.554688 28.058594 " clip-rule="nonzero"/></clipPath><clipPath id="2478114283"><path d="M 17.554688 28.058594 L 25.34375 40.378906 L 16.546875 45.941406 L 8.757812 33.621094 Z M 17.554688 28.058594 " clip-rule="nonzero"/></clipPath><clipPath id="8179eb591c"><path d="M 12 26 L 39 26 L 39 47 L 12 47 Z M 12 26 " clip-rule="nonzero"/></clipPath><clipPath id="c8c68e22a0"><path d="M 34.300781 26.078125 L 38.539062 32.777344 L 17.179688 46.277344 L 12.941406 39.578125 Z M 34.300781 26.078125 " clip-rule="nonzero"/></clipPath><clipPath id="0a39cf4a87"><path d="M 34.300781 26.078125 L 38.539062 32.777344 L 17.179688 46.277344 L 12.941406 39.578125 Z M 34.300781 26.078125 " clip-rule="nonzero"/></clipPath><clipPath id="67da363e7d"><path d="M 12 25 L 39 25 L 39 46 L 12 46 Z M 12 25 " clip-rule="nonzero"/></clipPath><clipPath id="e6e7cb32d9"><path d="M 34.273438 25.859375 L 38.292969 32.21875 L 16.589844 45.941406 L 12.566406 39.578125 Z M 34.273438 25.859375 " clip-rule="nonzero"/></clipPath><clipPath id="24a1823e2e"><path d="M 34.273438 25.859375 L 38.292969 32.21875 L 16.589844 45.941406 L 12.566406 39.578125 Z M 34.273438 25.859375 " clip-rule="nonzero"/></clipPath><clipPath id="165387a6ae"><path d="M 9 0 L 36 0 L 36 21 L 9 21 Z M 9 0 " clip-rule="nonzero"/></clipPath><clipPath id="ae9a6f1f8b"><path d="M 30.472656 0.00390625 L 35.132812 7.375 L 13.6875 20.929688 L 9.03125 13.5625 Z M 30.472656 0.00390625 " clip-rule="nonzero"/></clipPath><clipPath id="98d2fd7c60"><path d="M 30.472656 0.00390625 L 35.132812 7.375 L 13.6875 20.929688 L 9.03125 13.5625 Z M 30.472656 0.00390625 " clip-rule="nonzero"/></clipPath></defs><g fill="#000000" fill-opacity="1"><g transform="translate(35.257753, 40.185941)"><g><path d="M 2.828125 -29.421875 C 3.597656 -30.179688 4.507812 -30.5625 5.5625 -30.5625 C 6.613281 -30.5625 7.519531 -30.179688 8.28125 -29.421875 C 9.039062 -28.660156 9.421875 -27.75 9.421875 -26.6875 C 9.421875 -25.632812 9.039062 -24.726562 8.28125 -23.96875 C 7.519531 -23.207031 6.613281 -22.828125 5.5625 -22.828125 C 4.507812 -22.828125 3.597656 -23.207031 2.828125 -23.96875 C 2.066406 -24.726562 1.6875 -25.632812 1.6875 -26.6875 C 1.6875 -27.75 2.066406 -28.660156 2.828125 -29.421875 Z M 2.203125 -18.890625 L 2.203125 0 L 8.734375 0 L 8.734375 -18.890625 Z M 2.203125 -18.890625 "/></g></g></g><g fill="#000000" fill-opacity="1"><g transform="translate(42.914575, 40.185941)"><g><path d="M 3.3125 -18.890625 L 3.3125 -25.921875 L 9.828125 -25.921875 L 9.828125 -18.890625 L 13.8125 -18.890625 L 13.8125 -13.921875 L 9.828125 -13.921875 L 9.828125 -7.921875 C 9.828125 -6.171875 10.320312 -5.296875 11.3125 -5.296875 C 11.550781 -5.296875 11.804688 -5.34375 12.078125 -5.4375 C 12.347656 -5.539062 12.554688 -5.644531 12.703125 -5.75 L 12.921875 -5.890625 L 14.546875 -0.625 C 13.148438 0.15625 11.554688 0.546875 9.765625 0.546875 C 8.535156 0.546875 7.476562 0.332031 6.59375 -0.09375 C 5.707031 -0.519531 5.035156 -1.09375 4.578125 -1.8125 C 4.128906 -2.539062 3.804688 -3.300781 3.609375 -4.09375 C 3.410156 -4.894531 3.3125 -5.753906 3.3125 -6.671875 L 3.3125 -13.921875 L 0.59375 -13.921875 L 0.59375 -18.890625 Z M 3.3125 -18.890625 "/></g></g></g><g fill="#000000" fill-opacity="1"><g transform="translate(53.995322, 40.185941)"><g><path d="M 2.203125 0 L 2.203125 -18.890625 L 8.734375 -18.890625 L 8.734375 -16.171875 L 8.796875 -16.171875 C 8.847656 -16.265625 8.925781 -16.382812 9.03125 -16.53125 C 9.144531 -16.675781 9.382812 -16.929688 9.75 -17.296875 C 10.125 -17.671875 10.519531 -18.003906 10.9375 -18.296875 C 11.351562 -18.597656 11.890625 -18.863281 12.546875 -19.09375 C 13.210938 -19.320312 13.890625 -19.4375 14.578125 -19.4375 C 15.296875 -19.4375 16 -19.335938 16.6875 -19.140625 C 17.375 -18.953125 17.875 -18.757812 18.1875 -18.5625 L 18.703125 -18.265625 L 15.984375 -12.75 C 15.171875 -13.4375 14.039062 -13.78125 12.59375 -13.78125 C 11.8125 -13.78125 11.132812 -13.609375 10.5625 -13.265625 C 10 -12.921875 9.597656 -12.5 9.359375 -12 C 9.128906 -11.507812 8.96875 -11.09375 8.875 -10.75 C 8.78125 -10.40625 8.734375 -10.132812 8.734375 -9.9375 L 8.734375 0 Z M 2.203125 0 "/></g></g></g><g fill="#000000" fill-opacity="1"><g transform="translate(68.868171, 40.185941)"><g><path d="M 3.984375 -2.25 C 1.890625 -4.113281 0.84375 -6.503906 0.84375 -9.421875 C 0.84375 -12.347656 1.9375 -14.75 4.125 -16.625 C 6.3125 -18.5 9.015625 -19.4375 12.234375 -19.4375 C 15.398438 -19.4375 18.066406 -18.492188 20.234375 -16.609375 C 22.410156 -14.722656 23.5 -12.328125 23.5 -9.421875 C 23.5 -6.523438 22.4375 -4.140625 20.3125 -2.265625 C 18.1875 -0.390625 15.492188 0.546875 12.234375 0.546875 C 8.835938 0.546875 6.085938 -0.382812 3.984375 -2.25 Z M 9.03125 -12.625 C 8.1875 -11.789062 7.765625 -10.722656 7.765625 -9.421875 C 7.765625 -8.117188 8.171875 -7.054688 8.984375 -6.234375 C 9.796875 -5.421875 10.863281 -5.015625 12.1875 -5.015625 C 13.46875 -5.015625 14.519531 -5.429688 15.34375 -6.265625 C 16.164062 -7.097656 16.578125 -8.148438 16.578125 -9.421875 C 16.578125 -10.722656 16.148438 -11.789062 15.296875 -12.625 C 14.453125 -13.46875 13.414062 -13.890625 12.1875 -13.890625 C 10.9375 -13.890625 9.882812 -13.46875 9.03125 -12.625 Z M 9.03125 -12.625 "/></g></g></g><g fill="#000000" fill-opacity="1"><g transform="translate(89.742105, 40.185941)"><g><path d="M 2.203125 0 L 2.203125 -18.890625 L 8.734375 -18.890625 L 8.734375 -16.90625 L 8.796875 -16.90625 C 10.492188 -18.59375 12.300781 -19.4375 14.21875 -19.4375 C 15.144531 -19.4375 16.066406 -19.3125 16.984375 -19.0625 C 17.910156 -18.820312 18.796875 -18.441406 19.640625 -17.921875 C 20.492188 -17.410156 21.179688 -16.679688 21.703125 -15.734375 C 22.234375 -14.796875 22.5 -13.703125 22.5 -12.453125 L 22.5 0 L 15.984375 0 L 15.984375 -10.6875 C 15.984375 -11.664062 15.671875 -12.519531 15.046875 -13.25 C 14.421875 -13.988281 13.601562 -14.359375 12.59375 -14.359375 C 11.613281 -14.359375 10.722656 -13.976562 9.921875 -13.21875 C 9.128906 -12.457031 8.734375 -11.613281 8.734375 -10.6875 L 8.734375 0 Z M 2.203125 0 "/></g></g></g><g fill="#004aad" fill-opacity="1"><g transform="translate(34.541633, 39.469819)"><g><path d="M 2.828125 -29.421875 C 3.597656 -30.179688 4.507812 -30.5625 5.5625 -30.5625 C 6.613281 -30.5625 7.519531 -30.179688 8.28125 -29.421875 C 9.039062 -28.660156 9.421875 -27.75 9.421875 -26.6875 C 9.421875 -25.632812 9.039062 -24.726562 8.28125 -23.96875 C 7.519531 -23.207031 6.613281 -22.828125 5.5625 -22.828125 C 4.507812 -22.828125 3.597656 -23.207031 2.828125 -23.96875 C 2.066406 -24.726562 1.6875 -25.632812 1.6875 -26.6875 C 1.6875 -27.75 2.066406 -28.660156 2.828125 -29.421875 Z M 2.203125 -18.890625 L 2.203125 0 L 8.734375 0 L 8.734375 -18.890625 Z M 2.203125 -18.890625 "/></g></g></g><g fill="#004aad" fill-opacity="1"><g transform="translate(42.198455, 39.469819)"><g><path d="M 3.3125 -18.890625 L 3.3125 -25.921875 L 9.828125 -25.921875 L 9.828125 -18.890625 L 13.8125 -18.890625 L 13.8125 -13.921875 L 9.828125 -13.921875 L 9.828125 -7.921875 C 9.828125 -6.171875 10.320312 -5.296875 11.3125 -5.296875 C 11.550781 -5.296875 11.804688 -5.34375 12.078125 -5.4375 C 12.347656 -5.539062 12.554688 -5.644531 12.703125 -5.75 L 12.921875 -5.890625 L 14.546875 -0.625 C 13.148438 0.15625 11.554688 0.546875 9.765625 0.546875 C 8.535156 0.546875 7.476562 0.332031 6.59375 -0.09375 C 5.707031 -0.519531 5.035156 -1.09375 4.578125 -1.8125 C 4.128906 -2.539062 3.804688 -3.300781 3.609375 -4.09375 C 3.410156 -4.894531 3.3125 -5.753906 3.3125 -6.671875 L 3.3125 -13.921875 L 0.59375 -13.921875 L 0.59375 -18.890625 Z M 3.3125 -18.890625 "/></g></g></g><g fill="#004aad" fill-opacity="1"><g transform="translate(53.279202, 39.469819)"><g><path d="M 2.203125 0 L 2.203125 -18.890625 L 8.734375 -18.890625 L 8.734375 -16.171875 L 8.796875 -16.171875 C 8.847656 -16.265625 8.925781 -16.382812 9.03125 -16.53125 C 9.144531 -16.675781 9.382812 -16.929688 9.75 -17.296875 C 10.125 -17.671875 10.519531 -18.003906 10.9375 -18.296875 C 11.351562 -18.597656 11.890625 -18.863281 12.546875 -19.09375 C 13.210938 -19.320312 13.890625 -19.4375 14.578125 -19.4375 C 15.296875 -19.4375 16 -19.335938 16.6875 -19.140625 C 17.375 -18.953125 17.875 -18.757812 18.1875 -18.5625 L 18.703125 -18.265625 L 15.984375 -12.75 C 15.171875 -13.4375 14.039062 -13.78125 12.59375 -13.78125 C 11.8125 -13.78125 11.132812 -13.609375 10.5625 -13.265625 C 10 -12.921875 9.597656 -12.5 9.359375 -12 C 9.128906 -11.507812 8.96875 -11.09375 8.875 -10.75 C 8.78125 -10.40625 8.734375 -10.132812 8.734375 -9.9375 L 8.734375 0 Z M 2.203125 0 "/></g></g></g><g fill="#004aad" fill-opacity="1"><g transform="translate(68.15205, 39.469819)"><g><path d="M 3.984375 -2.25 C 1.890625 -4.113281 0.84375 -6.503906 0.84375 -9.421875 C 0.84375 -12.347656 1.9375 -14.75 4.125 -16.625 C 6.3125 -18.5 9.015625 -19.4375 12.234375 -19.4375 C 15.398438 -19.4375 18.066406 -18.492188 20.234375 -16.609375 C 22.410156 -14.722656 23.5 -12.328125 23.5 -9.421875 C 23.5 -6.523438 22.4375 -4.140625 20.3125 -2.265625 C 18.1875 -0.390625 15.492188 0.546875 12.234375 0.546875 C 8.835938 0.546875 6.085938 -0.382812 3.984375 -2.25 Z M 9.03125 -12.625 C 8.1875 -11.789062 7.765625 -10.722656 7.765625 -9.421875 C 7.765625 -8.117188 8.171875 -7.054688 8.984375 -6.234375 C 9.796875 -5.421875 10.863281 -5.015625 12.1875 -5.015625 C 13.46875 -5.015625 14.519531 -5.429688 15.34375 -6.265625 C 16.164062 -7.097656 16.578125 -8.148438 16.578125 -9.421875 C 16.578125 -10.722656 16.148438 -11.789062 15.296875 -12.625 C 14.453125 -13.46875 13.414062 -13.890625 12.1875 -13.890625 C 10.9375 -13.890625 9.882812 -13.46875 9.03125 -12.625 Z M 9.03125 -12.625 "/></g></g></g><g fill="#004aad" fill-opacity="1"><g transform="translate(89.025985, 39.469819)"><g><path d="M 2.203125 0 L 2.203125 -18.890625 L 8.734375 -18.890625 L 8.734375 -16.90625 L 8.796875 -16.90625 C 10.492188 -18.59375 12.300781 -19.4375 14.21875 -19.4375 C 15.144531 -19.4375 16.066406 -19.3125 16.984375 -19.0625 C 17.910156 -18.820312 18.796875 -18.441406 19.640625 -17.921875 C 20.492188 -17.410156 21.179688 -16.679688 21.703125 -15.734375 C 22.234375 -14.796875 22.5 -13.703125 22.5 -12.453125 L 22.5 0 L 15.984375 0 L 15.984375 -10.6875 C 15.984375 -11.664062 15.671875 -12.519531 15.046875 -13.25 C 14.421875 -13.988281 13.601562 -14.359375 12.59375 -14.359375 C 11.613281 -14.359375 10.722656 -13.976562 9.921875 -13.21875 C 9.128906 -12.457031 8.734375 -11.613281 8.734375 -10.6875 L 8.734375 0 Z M 2.203125 0 "/></g></g></g><g clip-path="url(#60895ff1a3)"><path fill="#000000" d="M 25.636719 6.335938 C 25.730469 10.574219 28.210938 14.425781 31.609375 16.34375 C 38.804688 19.84375 47.898438 16.375 55.304688 14.441406 C 65.527344 11.542969 75.894531 7.890625 86.726562 7.960938 C 97.644531 8.160156 109.210938 14.769531 112.164062 25.679688 C 102.21875 10.179688 84.71875 10.414062 68.476562 14.902344 C 57.675781 16.898438 40.691406 24.199219 30.699219 17.761719 C 26.980469 15.148438 25.03125 10.527344 25.636719 6.335938 Z M 25.636719 6.335938 " fill-opacity="1" fill-rule="nonzero"/></g><g clip-path="url(#21625b47da)"><g clip-path="url(#a2c6536793)"><g clip-path="url(#15a1d5a67f)"><path fill="#000000" d="M 28.078125 6.421875 L 30.875 10.753906 L 22.695312 16.03125 L 19.898438 11.695312 Z M 28.078125 6.421875 " fill-opacity="1" fill-rule="nonzero"/></g></g></g><g clip-path="url(#5f4543ec1a)"><g clip-path="url(#154cf4d1c2)"><g clip-path="url(#515390924f)"><path fill="#004aad" d="M 21.511719 5.667969 L 38.292969 32.21875 L 25.8125 40.109375 L 9.03125 13.558594 Z M 21.511719 5.667969 " fill-opacity="1" fill-rule="nonzero"/></g></g></g><g clip-path="url(#52f9765ed2)"><g clip-path="url(#c008094d28)"><g clip-path="url(#75d2320c2d)"><path fill="#000000" d="M 35.828125 8.382812 L 38.539062 12.582031 L 30.359375 17.859375 L 27.648438 13.65625 Z M 35.828125 8.382812 " fill-opacity="1" fill-rule="nonzero"/></g></g></g><g clip-path="url(#25626b6a44)"><g clip-path="url(#7c93498cf7)"><g clip-path="url(#c36d5b0f0d)"><path fill="#004aad" d="M 30.527344 0 L 38.324219 12.089844 L 29.746094 17.621094 L 21.953125 5.53125 Z M 30.527344 0 " fill-opacity="1" fill-rule="nonzero"/></g></g></g><g clip-path="url(#c9d42e8e4c)"><g clip-path="url(#b1159f0f89)"><g clip-path="url(#2478114283)"><path fill="#004aad" d="M 17.554688 28.058594 L 25.34375 40.378906 L 16.546875 45.941406 L 8.757812 33.621094 Z M 17.554688 28.058594 " fill-opacity="1" fill-rule="nonzero"/></g></g></g><g clip-path="url(#8179eb591c)"><g clip-path="url(#c8c68e22a0)"><g clip-path="url(#0a39cf4a87)"><path fill="#000000" d="M 34.300781 26.078125 L 38.539062 32.777344 L 17.179688 46.277344 L 12.941406 39.578125 Z M 34.300781 26.078125 " fill-opacity="1" fill-rule="nonzero"/></g></g></g><g clip-path="url(#67da363e7d)"><g clip-path="url(#e6e7cb32d9)"><g clip-path="url(#24a1823e2e)"><path fill="#004aad" d="M 34.273438 25.859375 L 38.292969 32.21875 L 16.589844 45.941406 L 12.566406 39.578125 Z M 34.273438 25.859375 " fill-opacity="1" fill-rule="nonzero"/></g></g></g><g clip-path="url(#165387a6ae)"><g clip-path="url(#ae9a6f1f8b)"><g clip-path="url(#98d2fd7c60)"><path fill="#004aad" d="M 30.472656 0.00390625 L 35.132812 7.375 L 13.6875 20.929688 L 9.03125 13.5625 Z M 30.472656 0.00390625 " fill-opacity="1" fill-rule="nonzero"/></g></g></g><g fill="#ff0000" fill-opacity="1"><g transform="translate(27.338543, 45.23462)"><g><path d="M 3.9375 -2.574219 C 2.953125 -1.757812 0.941406 -0.671875 0.105469 -0.523438 C 0.125 -0.605469 0.167969 -0.710938 0.210938 -0.796875 C 0.460938 -1.464844 0.753906 -2.074219 1.128906 -2.679688 C 1.359375 -3.097656 0.335938 -4 0.0429688 -3.476562 C -0.417969 -2.699219 -1.109375 -1.632812 -1.089844 -0.710938 C -1.066406 0.105469 -0.292969 0.859375 0.523438 0.691406 C 1.234375 0.542969 1.925781 0.0625 2.511719 -0.335938 C 3.246094 -0.835938 3.957031 -1.382812 4.648438 -1.96875 C 5.023438 -2.28125 4.355469 -2.929688 3.9375 -2.574219 Z M 2.050781 -4.773438 C 2.367188 -5.382812 2.40625 -5.507812 2.40625 -5.507812 C 2.660156 -5.925781 1.632812 -6.804688 1.339844 -6.28125 C 1.339844 -6.28125 1.214844 -6.074219 0.984375 -5.570312 C 0.773438 -5.109375 1.800781 -4.273438 2.050781 -4.773438 Z M 2.050781 -4.773438 "/></g></g></g><g fill="#ff0000" fill-opacity="1"><g transform="translate(33.619704, 45.23462)"><g><path d="M 8.355469 -2.699219 C 6.929688 -2.03125 5.339844 -1.359375 3.894531 -0.648438 C 4.1875 -1.257812 4.5 -1.863281 4.859375 -2.449219 C 5.128906 -2.890625 4.4375 -3.621094 3.976562 -3.476562 C 2.890625 -3.140625 1.863281 -2.617188 0.921875 -1.988281 C 0.921875 -2.011719 0.941406 -2.03125 0.964844 -2.050781 C 1.195312 -2.472656 0.167969 -3.371094 -0.125 -2.847656 C -0.671875 -1.882812 -1.171875 -0.859375 -1.445312 0.210938 C -1.550781 0.585938 -0.773438 1.507812 -0.417969 1.089844 C 0.460938 0.0195312 1.527344 -0.859375 2.722656 -1.507812 C 2.511719 -1.109375 2.34375 -0.691406 2.28125 -0.273438 C 2.175781 0.441406 2.847656 1.128906 3.582031 0.964844 C 4.3125 0.796875 5.023438 0.230469 5.652344 -0.148438 C 6.660156 -0.796875 7.683594 -1.425781 8.773438 -1.925781 C 9.296875 -2.175781 8.816406 -2.910156 8.355469 -2.699219 Z M 8.355469 -2.699219 "/></g></g></g><g fill="#ff0000" fill-opacity="1"><g transform="translate(44.234241, 45.23462)"><g><path d="M 2.554688 -4.230469 C 2.261719 -3.453125 1.90625 -2.699219 1.488281 -1.988281 C 1.257812 -1.613281 1.027344 -1.257812 0.773438 -0.921875 C 0.734375 -0.878906 0.671875 -0.773438 0.605469 -0.691406 C 0.628906 -0.835938 0.671875 -0.984375 0.691406 -1.089844 C 0.773438 -1.589844 0.921875 -2.050781 1.109375 -2.511719 C 1.296875 -2.972656 0.25 -3.851562 0.0429688 -3.308594 C -0.335938 -2.40625 -0.542969 -1.445312 -0.523438 -0.480469 C -0.503906 0.167969 -0.125 1.171875 0.710938 1.027344 C 1.066406 0.964844 1.296875 0.628906 1.507812 0.375 C 1.800781 0 2.074219 -0.417969 2.34375 -0.816406 C 2.847656 -1.652344 3.289062 -2.535156 3.644531 -3.433594 C 3.8125 -3.894531 2.765625 -4.773438 2.554688 -4.230469 Z M 2.554688 -4.230469 "/></g></g></g><g fill="#ff0000" fill-opacity="1"><g transform="translate(51.017826, 45.23462)"><g><path d="M 5.421875 -2.617188 C 4.1875 -1.652344 1.171875 -0.167969 -0.0820312 0 C -0.0429688 -0.167969 0.0195312 -0.335938 0.0820312 -0.480469 C 0.835938 -0.835938 3.644531 -1.925781 2.449219 -3.160156 C 1.632812 -4.019531 0.523438 -3.246094 -0.105469 -2.574219 C -0.796875 -1.820312 -1.757812 -0.335938 -1.003906 0.671875 C -0.523438 1.339844 0.1875 1.277344 0.878906 1.046875 C 2.765625 0.375 4.5 -0.878906 6.15625 -1.949219 C 6.554688 -2.21875 5.863281 -2.953125 5.421875 -2.617188 Z M 5.421875 -2.617188 "/></g></g></g><g fill="#ff0000" fill-opacity="1"><g transform="translate(58.743444, 45.23462)"><g><path d="M 3.832031 -2.785156 C 3.390625 -2.617188 2.386719 -2.34375 1.339844 -1.863281 C 1.234375 -1.96875 1.128906 -2.074219 1.027344 -2.199219 C 0.773438 -2.511719 0.585938 -3.265625 1.257812 -3.222656 C 1.570312 -3.203125 1.550781 -3.582031 1.445312 -3.769531 C 1.320312 -4.042969 1.003906 -4.3125 0.691406 -4.335938 C -0.355469 -4.417969 -0.503906 -3.246094 -0.125 -2.492188 C 0.0820312 -2.074219 0.441406 -1.78125 0.734375 -1.402344 C -0.417969 -0.460938 -1.234375 0.710938 -0.105469 1.652344 C 0.964844 2.535156 1.96875 1.234375 2.113281 0.210938 C 2.15625 -0.105469 2.136719 -0.417969 2.050781 -0.710938 C 2.699219 -1.214844 3.433594 -1.613281 4.1875 -1.90625 C 4.730469 -2.113281 4.292969 -2.972656 3.832031 -2.785156 Z M 3.832031 -2.785156 "/></g></g></g><g fill="#ff0000" fill-opacity="1"><g transform="translate(64.919932, 45.23462)"><g><path d="M 10.40625 -8.019531 C 8.4375 -9.046875 5.988281 -9.066406 3.769531 -9.046875 C 4.082031 -9.738281 4.417969 -10.425781 4.753906 -11.097656 C 4.960938 -11.539062 3.914062 -12.4375 3.664062 -11.894531 C 3.203125 -10.949219 2.742188 -9.988281 2.304688 -9.023438 C -0.125 -8.941406 -2.574219 -8.667969 -4.984375 -8.207031 C -5.484375 -8.101562 -4.691406 -7.035156 -4.1875 -7.121094 C -2.199219 -7.515625 -0.210938 -7.746094 1.800781 -7.851562 C 0.105469 -4 -1.234375 0.0195312 -1.171875 4.292969 C -1.152344 4.773438 -0.0429688 5.527344 -0.0625 4.859375 C -0.125 0.355469 1.402344 -3.875 3.246094 -7.914062 C 3.265625 -7.914062 3.289062 -7.914062 3.308594 -7.914062 C 4.5 -7.9375 5.695312 -7.914062 6.890625 -7.832031 C 8.101562 -7.746094 9.339844 -7.644531 10.425781 -7.054688 C 10.65625 -6.929688 10.929688 -6.953125 10.972656 -7.265625 C 10.992188 -7.558594 10.636719 -7.894531 10.40625 -8.019531 Z M 10.40625 -8.019531 "/></g></g></g><g fill="#ff0000" fill-opacity="1"><g transform="translate(69.986913, 45.23462)"><g><path d="M 11.746094 -2.597656 C 10.65625 -1.71875 8.355469 -0.605469 7.789062 -0.460938 C 7.808594 -0.566406 7.808594 -0.671875 7.789062 -0.753906 C 7.746094 -1.234375 7.390625 -1.695312 6.953125 -1.882812 C 6.511719 -2.09375 6.074219 -1.96875 5.675781 -1.71875 C 5.507812 -1.632812 5.359375 -1.527344 5.214844 -1.445312 C 5.320312 -1.78125 5.421875 -2.136719 5.382812 -2.472656 C 5.277344 -3.289062 4.5 -3.683594 3.8125 -3.371094 C 2.699219 -2.867188 1.652344 -2.21875 0.710938 -1.464844 C 0.796875 -1.675781 0.878906 -1.863281 0.984375 -2.050781 C 1.214844 -2.492188 0.1875 -3.371094 -0.105469 -2.847656 C -0.605469 -1.882812 -0.921875 -0.859375 -1.066406 0.230469 C -1.109375 0.585938 -0.355469 1.339844 -0.0195312 1.003906 C 0.691406 0.292969 1.445312 -0.375 2.28125 -0.941406 C 2.722656 -1.257812 3.160156 -1.527344 3.644531 -1.800781 C 3.789062 -1.863281 3.9375 -1.988281 4.125 -2.09375 C 4.082031 -1.925781 4.019531 -1.800781 4 -1.675781 C 3.894531 -1.214844 3.789062 -0.734375 3.683594 -0.273438 C 3.582031 0.167969 4.273438 0.921875 4.710938 0.605469 C 5.109375 0.335938 5.484375 0.0429688 5.882812 -0.230469 C 6.074219 -0.355469 6.261719 -0.523438 6.46875 -0.648438 C 6.492188 -0.671875 6.554688 -0.691406 6.597656 -0.710938 C 6.597656 -0.691406 6.597656 -0.691406 6.597656 -0.671875 C 6.554688 -0.460938 6.511719 -0.230469 6.574219 0 C 6.722656 0.503906 7.222656 0.878906 7.746094 0.859375 C 8.25 0.835938 8.753906 0.542969 9.171875 0.3125 C 10.300781 -0.335938 11.347656 -1.152344 12.355469 -1.96875 C 12.75 -2.28125 12.164062 -2.929688 11.746094 -2.597656 Z M 11.746094 -2.597656 "/></g></g></g><g fill="#ff0000" fill-opacity="1"><g transform="translate(83.950916, 45.23462)"><g><path d="M 5.421875 -2.617188 C 4.1875 -1.652344 1.171875 -0.167969 -0.0820312 0 C -0.0429688 -0.167969 0.0195312 -0.335938 0.0820312 -0.480469 C 0.835938 -0.835938 3.644531 -1.925781 2.449219 -3.160156 C 1.632812 -4.019531 0.523438 -3.246094 -0.105469 -2.574219 C -0.796875 -1.820312 -1.757812 -0.335938 -1.003906 0.671875 C -0.523438 1.339844 0.1875 1.277344 0.878906 1.046875 C 2.765625 0.375 4.5 -0.878906 6.15625 -1.949219 C 6.554688 -2.21875 5.863281 -2.953125 5.421875 -2.617188 Z M 5.421875 -2.617188 "/></g></g></g><g fill="#ff0000" fill-opacity="1"><g transform="translate(91.676534, 45.23462)"><g><path d="M 8.355469 -2.699219 C 6.929688 -2.03125 5.339844 -1.359375 3.894531 -0.648438 C 4.1875 -1.257812 4.5 -1.863281 4.859375 -2.449219 C 5.128906 -2.890625 4.4375 -3.621094 3.976562 -3.476562 C 2.890625 -3.140625 1.863281 -2.617188 0.921875 -1.988281 C 0.921875 -2.011719 0.941406 -2.03125 0.964844 -2.050781 C 1.195312 -2.472656 0.167969 -3.371094 -0.125 -2.847656 C -0.671875 -1.882812 -1.171875 -0.859375 -1.445312 0.210938 C -1.550781 0.585938 -0.773438 1.507812 -0.417969 1.089844 C 0.460938 0.0195312 1.527344 -0.859375 2.722656 -1.507812 C 2.511719 -1.109375 2.34375 -0.691406 2.28125 -0.273438 C 2.175781 0.441406 2.847656 1.128906 3.582031 0.964844 C 4.3125 0.796875 5.023438 0.230469 5.652344 -0.148438 C 6.660156 -0.796875 7.683594 -1.425781 8.773438 -1.925781 C 9.296875 -2.175781 8.816406 -2.910156 8.355469 -2.699219 Z M 8.355469 -2.699219 "/></g></g></g><g fill="#ff0000" fill-opacity="1"><g transform="translate(102.291069, 45.23462)"><g><path d="M 10.40625 -8.019531 C 8.4375 -9.046875 5.988281 -9.066406 3.769531 -9.046875 C 4.082031 -9.738281 4.417969 -10.425781 4.753906 -11.097656 C 4.960938 -11.539062 3.914062 -12.4375 3.664062 -11.894531 C 3.203125 -10.949219 2.742188 -9.988281 2.304688 -9.023438 C -0.125 -8.941406 -2.574219 -8.667969 -4.984375 -8.207031 C -5.484375 -8.101562 -4.691406 -7.035156 -4.1875 -7.121094 C -2.199219 -7.515625 -0.210938 -7.746094 1.800781 -7.851562 C 0.105469 -4 -1.234375 0.0195312 -1.171875 4.292969 C -1.152344 4.773438 -0.0429688 5.527344 -0.0625 4.859375 C -0.125 0.355469 1.402344 -3.875 3.246094 -7.914062 C 3.265625 -7.914062 3.289062 -7.914062 3.308594 -7.914062 C 4.5 -7.9375 5.695312 -7.914062 6.890625 -7.832031 C 8.101562 -7.746094 9.339844 -7.644531 10.425781 -7.054688 C 10.65625 -6.929688 10.929688 -6.953125 10.972656 -7.265625 C 10.992188 -7.558594 10.636719 -7.894531 10.40625 -8.019531 Z M 10.40625 -8.019531 "/></g></g></g><g fill="#ff0000" fill-opacity="1"><g transform="translate(107.358051, 45.23462)"><g><path d="M 3.832031 -2.785156 C 3.390625 -2.617188 2.386719 -2.34375 1.339844 -1.863281 C 1.234375 -1.96875 1.128906 -2.074219 1.027344 -2.199219 C 0.773438 -2.511719 0.585938 -3.265625 1.257812 -3.222656 C 1.570312 -3.203125 1.550781 -3.582031 1.445312 -3.769531 C 1.320312 -4.042969 1.003906 -4.3125 0.691406 -4.335938 C -0.355469 -4.417969 -0.503906 -3.246094 -0.125 -2.492188 C 0.0820312 -2.074219 0.441406 -1.78125 0.734375 -1.402344 C -0.417969 -0.460938 -1.234375 0.710938 -0.105469 1.652344 C 0.964844 2.535156 1.96875 1.234375 2.113281 0.210938 C 2.15625 -0.105469 2.136719 -0.417969 2.050781 -0.710938 C 2.699219 -1.214844 3.433594 -1.613281 4.1875 -1.90625 C 4.730469 -2.113281 4.292969 -2.972656 3.832031 -2.785156 Z M 3.832031 -2.785156 "/></g></g></g></svg>