<?xml version="1.0" standalone="no"?>
<!DOCTYPE svg PUBLIC "-//W3C//DTD SVG 20010904//EN"
 "http://www.w3.org/TR/2001/REC-SVG-20010904/DTD/svg10.dtd">
<svg version="1.0" xmlns="http://www.w3.org/2000/svg"
 width="150.000000pt" height="150.000000pt" viewBox="0 0 150.000000 150.000000"
 preserveAspectRatio="xMidYMid meet">
<metadata>
Created by potrace 1.14, written by Peter Selinger 2001-2017
</metadata>
<g transform="translate(0.000000,150.000000) scale(0.100000,-0.100000)"
fill="#000000" stroke="none">
<path d="M168 1022 c-75 -48 -140 -90 -143 -94 -4 -3 32 -68 80 -143 48 -75
85 -138 83 -141 -3 -2 -17 14 -32 37 -27 40 -27 40 -53 23 -15 -9 -41 -25 -59
-36 l-33 -19 46 -72 c70 -110 61 -106 140 -57 37 24 76 43 86 42 9 0 15 3 12
8 -4 7 83 70 98 70 3 0 7 -17 9 -37 3 -38 3 -38 51 -41 l47 -3 0 95 c0 57 4
96 10 96 6 0 10 -25 10 -56 0 -66 21 -117 55 -132 16 -7 54 -9 104 -5 66 5 80
9 84 24 3 11 14 19 26 19 25 0 26 -6 7 -51 -19 -48 -28 -117 -16 -124 6 -4 10
8 10 29 0 19 9 60 21 91 24 65 41 69 115 30 72 -38 152 -30 206 22 l28 27 0
-32 c0 -31 2 -32 41 -32 25 0 46 6 53 15 6 8 26 18 45 21 31 7 34 5 27 -12 -4
-10 -15 -47 -23 -82 -12 -48 -13 -66 -5 -74 9 -9 12 -2 13 28 0 21 6 54 13 73
12 35 13 35 68 32 67 -3 66 -5 56 125 -7 98 -19 132 -70 190 -124 140 -307
159 -633 64 -87 -25 -113 -29 -132 -21 -13 6 -39 11 -58 11 -30 0 -35 -3 -35
-24 0 -13 -7 -27 -16 -30 -29 -11 -34 -6 -14 14 25 25 25 41 -1 74 -21 27 -57
34 -75 16 -7 -7 -25 11 -57 60 -26 38 -48 70 -50 69 -1 0 -64 -39 -139 -87z
m1036 -93 c56 -11 135 -51 166 -84 l22 -23 -34 7 c-18 4 -44 4 -58 0 -14 -3
-51 -4 -82 -1 l-58 5 0 -37 c0 -20 -4 -36 -10 -36 -5 0 -10 4 -10 10 0 16 -72
57 -111 64 -23 4 -54 1 -84 -9 -29 -10 -51 -13 -58 -7 -23 18 -61 21 -93 7
-20 -8 -36 -10 -39 -4 -4 5 -35 9 -71 9 -112 0 -81 22 91 64 216 54 300 60
429 35z m-847 -78 l48 -16 -5 -65 -5 -65 -46 70 c-25 39 -58 90 -73 115 l-27
45 30 -34 c17 -20 49 -40 78 -50z m57 44 l25 -25 -34 0 c-18 0 -41 3 -50 7
-15 5 -15 8 6 24 30 23 24 23 53 -6z m920 -151 c17 -16 23 -118 9 -127 -5 -3
-26 -7 -48 -9 l-40 -3 -3 51 c-2 39 2 56 18 77 24 31 42 34 64 11z m-674 -49
c0 -48 -2 -55 -20 -55 -18 0 -20 7 -20 55 0 48 2 55 20 55 18 0 20 -7 20 -55z
m188 8 c4 -55 -20 -93 -59 -93 -28 0 -29 1 -29 54 0 63 18 89 59 84 23 -3 26
-8 29 -45z m208 23 c13 -22 14 -29 2 -53 -11 -24 -19 -28 -53 -28 -34 0 -41 4
-49 27 -22 63 63 109 100 54z m-186 -107 c0 -5 -7 -9 -15 -9 -15 0 -20 12 -9
23 8 8 24 -1 24 -14z"/>
<path d="M531 531 c-10 -19 -15 -21 -22 -10 -6 10 -9 6 -9 -13 0 -16 4 -28 10
-28 14 0 43 47 38 62 -3 8 -9 4 -17 -11z"/>
<path d="M709 548 c-1 -2 -3 -20 -4 -40 -5 -45 11 -59 25 -24 5 14 14 26 20
26 5 0 10 5 10 10 0 7 -6 7 -19 1 -21 -12 -32 -5 -24 15 4 11 -4 22 -8 12z"/>
<path d="M1383 530 c1 -14 -2 -31 -6 -37 -5 -7 -5 -18 -2 -23 8 -14 35 6 35
25 0 8 6 16 13 18 6 3 2 6 -10 6 -12 1 -24 9 -27 19 -3 10 -4 7 -3 -8z"/>
<path d="M260 520 c-22 -41 9 -52 50 -19 24 20 18 20 -26 2 -13 -5 -15 -2 -9
15 8 28 -1 28 -15 2z"/>
<path d="M596 521 c-17 -19 -16 -51 1 -51 4 0 26 11 48 25 42 26 38 35 -5 10
-33 -19 -50 -18 -26 0 14 10 17 18 10 25 -7 7 -16 4 -28 -9z"/>
<path d="M1055 524 c-21 -21 -15 -50 9 -46 23 4 68 33 62 39 -3 3 -15 -2 -28
-11 -32 -23 -56 -21 -27 2 14 12 18 21 11 25 -6 4 -18 0 -27 -9z"/>
<path d="M1197 529 c-9 -6 -21 -7 -27 -4 -10 6 -35 -33 -27 -42 3 -2 17 3 31
12 24 16 26 16 20 1 -9 -22 18 -21 58 4 34 21 22 28 -14 9 -18 -10 -20 -9 -15
5 8 20 -4 27 -26 15z"/>
<path d="M345 512 c-3 -8 -5 -21 -5 -30 0 -12 5 -11 25 8 21 19 25 21 25 7 0
-23 19 -21 55 4 27 19 22 20 -20 3 -11 -5 -13 -2 -9 10 5 13 0 16 -30 14 -20
-2 -38 -9 -41 -16z"/>
<path d="M857 524 c-10 -10 -9 -44 2 -44 5 0 14 7 21 15 7 8 16 15 21 15 5 0
9 -7 9 -15 0 -18 16 -20 26 -4 4 8 9 7 15 -2 7 -12 15 -11 44 5 19 11 33 21
31 23 -2 3 -14 0 -26 -7 -22 -12 -60 -5 -72 13 -5 8 -14 7 -32 -1 -16 -7 -26
-7 -28 -1 -2 6 -7 7 -11 3z"/>
</g>
</svg>
